<?xml version="1.0" encoding="utf-8" ?><svg xmlns="http://www.w3.org/2000/svg" xmlns:xlink="http://www.w3.org/1999/xlink" width="300" height="300" viewBox="45 45 210 210"><path fill="black" transform="scale(0.292969 0.292969)" d="M320.867 191.734C353.08 190.802 389.065 191.551 421.596 191.613L579.744 191.542L663.333 191.599C677.265 191.585 691.362 191.336 705.278 191.601C737.607 192.218 767.544 205.518 790.997 227.47C816.471 251.56 831.229 284.853 831.973 319.905C832.86 351.123 832.26 385.964 832.194 417.352L832.016 578.69L832.069 663.295C832.106 677.262 832.308 691.316 831.943 705.275C830.131 774.5 770.882 830.077 702.633 832.051C669.799 832.673 634.791 832.155 601.816 832.12L444.622 832.179L364.415 832.228C342.9 832.224 317.289 833.107 296.454 828.856C272.975 823.961 251.351 812.546 234.064 795.922C208.161 771.395 192.507 738.478 192.154 702.456C191.858 672.357 192.075 642.207 192.084 612.102L192.076 442.495L192.032 358.694C192.013 340.41 191.053 314.992 194.395 297.745C199.26 273.098 211.114 250.371 228.54 232.275C253.433 206.193 284.925 192.459 320.867 191.734ZM703.625 822.872C737.765 820.916 768.188 807.487 791.201 781.834C806.616 764.752 817.002 743.737 821.21 721.115C824.278 704.063 823.151 685.46 823.242 668.019L823.127 571.968L823.413 411.41L823.373 361.2C823.416 346.896 823.589 332.912 822.903 318.603C821.268 284.501 807.15 254.444 781.553 231.719C764.739 216.503 743.978 206.331 721.65 202.367C708.001 199.929 681.627 200.587 667.029 200.608L587.46 200.59C525.502 200.237 463.542 200.238 401.584 200.593C374.337 200.645 345.474 200.127 318.386 200.74C285.886 201.971 255.274 216.325 233.543 240.522C217.587 258.022 206.923 279.688 202.787 303.005C199.924 318.936 200.961 336.473 200.845 352.802L200.869 447.028L200.614 612.729L200.601 664.966C200.543 677.5 200.202 692.433 200.813 704.903C202.412 737.598 216.959 768.313 241.242 790.264C281.277 826.196 315.892 823.381 365.253 823.318L449.206 823.229L607.87 823.225C639.007 823.242 672.621 823.742 703.625 822.872Z"/><path fill="black" transform="scale(0.292969 0.292969)" d="M322.819 227.717C328.498 227.19 341.915 227.567 348.19 227.565L400.294 227.593L558.534 227.858L658.394 227.817C695.969 227.699 726.74 223.119 758.459 248.578C779.67 265.836 793.222 290.76 796.176 317.945C797.149 327.109 796.979 340.677 796.943 349.984C796.874 362.745 796.872 375.507 796.936 388.269L796.931 525.41L796.948 646.068L796.891 680.789C796.883 690.342 797.106 701.537 795.724 710.855C792.955 728.528 785.557 745.152 774.28 759.038C757.049 780.338 731.91 793.731 704.62 796.149C699.471 797.348 688 796.116 682.471 796.121C674.232 796.128 665.945 796.069 657.691 796.137L518.051 796.091L382.745 796.518L346.053 796.503C334.424 796.485 322.19 796.595 310.688 794.751C292.833 792.011 276.12 784.267 262.487 772.416C242.344 755.111 229.998 730.44 228.221 703.945C227.665 695.168 227.989 683.424 227.996 674.482L228.009 624.435L227.984 464.793L227.852 366.227L227.85 336.357C227.873 328.809 227.739 321.125 228.731 313.708C234.265 272.316 267.121 236.66 308.452 229.3C313.358 228.426 317.792 228.029 322.819 227.717ZM696.875 787.181C721.255 786.951 744.538 777.017 761.574 759.577C774.494 745.919 783.152 728.79 786.488 710.287C788.128 700.796 787.525 673.642 787.533 662.68L787.455 569.018L787.516 400.998C787.511 377.247 787.307 354.128 787.516 329.508C787.886 286.074 757.448 245.766 713.905 238.02C699.453 235.449 676.633 236.696 661.457 236.814L591.978 236.895L327.154 236.738C276.354 237.246 237.651 276.578 236.889 327.437C236.737 337.579 236.878 347.741 236.897 357.885L236.979 433.422L236.92 596.257C236.866 629.585 236.904 662.916 236.857 696.244C236.823 720.535 246.589 744.587 264.107 761.53C279.603 776.518 302.544 786.278 324.095 787.123C336.262 787.6 348.712 787.421 360.869 787.389L421.481 787.457L605.287 787.476L668.118 787.312C677.337 787.284 687.833 786.961 696.875 787.181Z"/><path fill="black" transform="scale(0.292969 0.292969)" d="M494.756 366.71C499.322 365.797 508.16 367.134 512.866 368.287C530.365 372.574 543.98 386.193 553.345 400.998C554.594 403.04 556.724 407.634 555.567 410.083C552.498 416.577 539.835 410.808 535.231 409.64C516.741 404.844 496.9 405.808 479.141 412.987C474.005 415.063 465.179 419.041 462.827 424.483C461.606 427.308 462.801 430.628 464.017 433.266C471.568 449.655 489.511 455.638 505.363 460.969L551.202 442.016C559.468 438.563 568.076 434.245 576.711 431.866C578.554 431.358 581 431.064 582.838 431.768C583.785 432.131 585.008 432.878 585.37 433.892C586.992 438.442 575.866 472.501 573.562 478.958C568.571 482.02 552.866 486.108 546.25 488.447C523.834 496.186 502.731 505.214 483.153 518.631C459.9 534.567 440.889 563.205 460.07 589.76C471.211 605.184 495.426 612.603 513.481 615.103C545.489 620.565 579.282 617.204 611.039 612.017C619.489 610.637 622.574 621.258 614.15 626.674C600.631 635.367 579.551 652.722 565.163 658.452C548.537 662.442 527.927 661.242 511.349 660.375C457.531 657.561 415.382 624.757 420.375 567.471C423.202 535.03 436.296 511.501 460.314 491.148C457.031 489.13 454.081 487.229 451.043 484.86C410.855 453.521 430.461 394.141 470.882 373.302C479.268 368.979 485.308 367.587 494.756 366.71ZM487.196 618.247C470.874 612.063 455.874 604.052 448.085 587.415C442.532 575.553 441.894 560.676 446.648 548.384C457.184 521.143 489.112 502.561 514.803 491.096C529.061 484.734 551.024 477.181 565.922 473.083C568.861 462.807 571.971 452.581 575.251 442.408C560.361 447.484 546.1 454.102 531.294 459.884C527.512 461.361 509.094 469.887 506.467 469.767C487.176 468.89 444.973 444.293 455.107 420.044C458.664 411.534 477.244 403.174 485.659 401.084C503.633 395.813 527.186 396.928 544.764 403.289C532.758 387.939 516.165 373.79 495.304 375.689C480.242 377.374 470.345 382.783 459.324 392.956C436.466 414.056 427.787 455.26 454.995 476.513C459.748 480.226 470.001 485.222 471.795 490.63C471.407 493.355 459.428 503.914 456.66 506.91C453.543 510.242 450.625 513.756 447.922 517.432C427.362 545.783 420.671 590.614 442.995 619.976C468.238 653.177 521.365 655.075 559.277 651.239C566.474 650.262 597.474 627.411 605.817 621.655C570.711 628.27 521.554 629.019 487.196 618.247Z"/><path fill="black" transform="scale(0.292969 0.292969)" d="M308.092 673.392L315.575 673.464L315.564 681.402C318.647 681.47 324.034 682.437 326.583 684.065C331.32 687.091 327.609 690.726 325.439 693.272C321.19 691.27 319.662 690.55 315.108 689.098C315.208 693.237 315.59 698.93 315.206 702.901C322.359 704.951 328.863 707.29 330.395 715.649C331.09 719.492 330.183 723.452 327.883 726.609C324.49 731.292 320.287 732.54 315.034 733.483L315.323 741.516L308.033 741.499L307.899 733.231C307.505 733.212 307.112 733.186 306.719 733.152C301.421 732.696 292.014 730.6 292.846 723.661C296.172 718.458 303.066 723.743 307.813 725.598C308.039 720.488 308.062 715.37 307.881 710.258C301.029 708.117 294.54 704.684 293.443 696.763C292.926 693.273 293.911 689.727 296.153 687.003C299.173 683.365 303.398 681.827 307.977 681.455C308.193 678.78 308.111 676.08 308.092 673.392ZM319.463 723.117C323.19 717.171 320.609 714.364 315.006 711.727C315.012 714.896 314.25 722.798 315.952 724.671C317.871 724.59 317.573 724.363 319.463 723.117ZM305.277 699.342L307.755 700.75C308.306 699.002 308.224 691.185 307.765 689.379C302.72 691.619 301.221 694.758 305.277 699.342Z"/><path fill="black" transform="scale(0.292969 0.292969)" d="M350.96 733.249L380.351 733.109C380.352 735.937 380.507 739.079 380.585 741.934L369.375 741.831L339.539 741.906C339.491 739.132 339.537 736.232 339.539 733.446C342.986 733.211 347.437 733.287 350.96 733.249Z"/></svg>